<?xml version="1.0" encoding="UTF-8" standalone="no"?>
<svg
   xmlns:dc="http://purl.org/dc/elements/1.1/"
   xmlns:cc="http://creativecommons.org/ns#"
   xmlns:rdf="http://www.w3.org/1999/02/22-rdf-syntax-ns#"
   xmlns:svg="http://www.w3.org/2000/svg"
   xmlns="http://www.w3.org/2000/svg"
   xmlns:sodipodi="http://sodipodi.sourceforge.net/DTD/sodipodi-0.dtd"
   xmlns:inkscape="http://www.inkscape.org/namespaces/inkscape"
   width="210mm"
   height="297mm"
   viewBox="0 0 210 297"
   version="1.1"
   id="svg16"
   inkscape:version="1.0.1 (3bc2e813f5, 2020-09-07)"
   sodipodi:docname="light101.svg">
  <defs
     id="defs10">
    <marker
       style="overflow:visible;"
       id="Arrow1Lend"
       refX="0.0"
       refY="0.0"
       orient="auto"
       inkscape:stockid="Arrow1Lend"
       inkscape:isstock="true">
      <path
         transform="scale(0.8) rotate(180) translate(12.5,0)"
         style="fill-rule:evenodd;stroke:#000000;stroke-width:1pt;stroke-opacity:1;fill:#000000;fill-opacity:1"
         d="M 0.0,0.0 L 5.0,-5.0 L -12.5,0.0 L 5.0,5.0 L 0.0,0.0 z "
         id="path1310" />
    </marker>
    <marker
       style="overflow:visible"
       id="marker1597"
       refX="0.0"
       refY="0.0"
       orient="auto"
       inkscape:stockid="Arrow1Lstart"
       inkscape:isstock="true">
      <path
         transform="scale(0.8) translate(12.5,0)"
         style="fill-rule:evenodd;stroke:#000000;stroke-width:1pt;stroke-opacity:1;fill:#000000;fill-opacity:1"
         d="M 0.0,0.0 L 5.0,-5.0 L -12.5,0.0 L 5.0,5.0 L 0.0,0.0 z "
         id="path1595" />
    </marker>
    <marker
       style="overflow:visible"
       id="Arrow1Lstart"
       refX="0.0"
       refY="0.0"
       orient="auto"
       inkscape:stockid="Arrow1Lstart"
       inkscape:isstock="true">
      <path
         transform="scale(0.8) translate(12.5,0)"
         style="fill-rule:evenodd;stroke:#000000;stroke-width:1pt;stroke-opacity:1;fill:#000000;fill-opacity:1"
         d="M 0.0,0.0 L 5.0,-5.0 L -12.5,0.0 L 5.0,5.0 L 0.0,0.0 z "
         id="path1307" />
    </marker>
    <marker
       style="overflow:visible"
       id="Arrow1Lend-4"
       refX="0"
       refY="0"
       orient="auto"
       inkscape:stockid="Arrow1Lend"
       inkscape:isstock="true">
      <path
         transform="matrix(-0.8,0,0,-0.8,-10,0)"
         style="fill:#000000;fill-opacity:1;fill-rule:evenodd;stroke:#000000;stroke-width:1pt;stroke-opacity:1"
         d="M 0,0 5,-5 -12.5,0 5,5 Z"
         id="path1310-7" />
    </marker>
    <marker
       style="overflow:visible"
       id="Arrow1Lend-4-6"
       refX="0"
       refY="0"
       orient="auto"
       inkscape:stockid="Arrow1Lend"
       inkscape:isstock="true">
      <path
         transform="matrix(-0.8,0,0,-0.8,-10,0)"
         style="fill:#000000;fill-opacity:1;fill-rule:evenodd;stroke:#000000;stroke-width:1pt;stroke-opacity:1"
         d="M 0,0 5,-5 -12.5,0 5,5 Z"
         id="path1310-7-9" />
    </marker>
    <marker
       style="overflow:visible"
       id="Arrow1Lend-4-6-7"
       refX="0"
       refY="0"
       orient="auto"
       inkscape:stockid="Arrow1Lend"
       inkscape:isstock="true">
      <path
         transform="matrix(-0.8,0,0,-0.8,-10,0)"
         style="fill:#000000;fill-opacity:1;fill-rule:evenodd;stroke:#000000;stroke-width:1pt;stroke-opacity:1"
         d="M 0,0 5,-5 -12.5,0 5,5 Z"
         id="path1310-7-9-0" />
    </marker>
    <marker
       style="overflow:visible"
       id="Arrow1Lend-9"
       refX="0"
       refY="0"
       orient="auto"
       inkscape:stockid="Arrow1Lend"
       inkscape:isstock="true">
      <path
         transform="matrix(-0.8,0,0,-0.8,-10,0)"
         style="fill:#000000;fill-opacity:1;fill-rule:evenodd;stroke:#000000;stroke-width:1pt;stroke-opacity:1"
         d="M 0,0 5,-5 -12.5,0 5,5 Z"
         id="path1310-70" />
    </marker>
    <marker
       style="overflow:visible"
       id="Arrow1Lend-9-3"
       refX="0"
       refY="0"
       orient="auto"
       inkscape:stockid="Arrow1Lend"
       inkscape:isstock="true">
      <path
         transform="matrix(-0.8,0,0,-0.8,-10,0)"
         style="fill:#000000;fill-opacity:1;fill-rule:evenodd;stroke:#000000;stroke-width:1pt;stroke-opacity:1"
         d="M 0,0 5,-5 -12.5,0 5,5 Z"
         id="path1310-70-3" />
    </marker>
  </defs>
  <sodipodi:namedview
     id="base"
     pagecolor="#ffffff"
     bordercolor="#666666"
     borderopacity="1.0"
     inkscape:pageopacity="0.0"
     inkscape:pageshadow="2"
     inkscape:zoom="0.7"
     inkscape:cx="359.06895"
     inkscape:cy="500.43387"
     inkscape:document-units="mm"
     inkscape:current-layer="layer1"
     inkscape:document-rotation="0"
     showgrid="false"
     inkscape:window-width="1920"
     inkscape:window-height="1017"
     inkscape:window-x="-8"
     inkscape:window-y="-8"
     inkscape:window-maximized="1" />
  <metadata
     id="metadata13">
    <rdf:RDF>
      <cc:Work
         rdf:about="">
        <dc:format>image/svg+xml</dc:format>
        <dc:type
           rdf:resource="http://purl.org/dc/dcmitype/StillImage" />
        <dc:title></dc:title>
      </cc:Work>
    </rdf:RDF>
  </metadata>
  <g
     inkscape:label="Layer 1"
     inkscape:groupmode="layer"
     id="layer1">
    <path
       id="path79"
       style="fill:#ffd42a;stroke-width:0.264583"
       d="m 104.49569,206.26771 a 22.111607,22.111607 0 0 0 -22.111826,22.11183 22.111607,22.111607 0 0 0 8.555548,17.46819 l 6.862114,17.49454 h 13.387814 l 6.86263,-17.49506 a 22.111607,22.111607 0 0 0 8.55503,-17.46767 22.111607,22.111607 0 0 0 -22.11131,-22.11183 z" />
    <rect
       style="fill:#808080;stroke-width:0.264583"
       id="rect94"
       width="13.644647"
       height="13.148066"
       x="97.673103"
       y="263.34225" />
    <path
       id="rect96"
       style="fill:#28220b;stroke-width:0.33427"
       d="m 97.746877,276.49034 h 13.497113 l -3.82754,2.40542 h -5.84203 z"
       sodipodi:nodetypes="ccccc" />
    <path
       id="rect99"
       style="fill:#6c6753;stroke-width:0.191219"
       d="m 104.49554,229.37826 c -2.07056,0 -3.73757,4.91789 -3.73757,11.02633 v 23.0713 h 0.77713 c -0.0297,-0.50715 -0.0461,-1.02838 -0.0461,-1.56135 v -21.91602 c 0,-5.00563 1.36589,-9.03518 3.06264,-9.03518 1.69675,0 3.06286,4.02955 3.06286,9.03518 v 21.91602 c 0,0.53297 -0.0164,1.0542 -0.0461,1.56135 h 0.66449 v -23.0713 c 0,-6.10844 -1.66679,-11.02633 -3.73735,-11.02633 z" />
    <rect
       style="opacity:1;fill:#00000b;fill-opacity:1;stroke-width:0.0979006"
       id="rect1237"
       width="4.9766316"
       height="83.388092"
       x="72.9049"
       y="168.28078"
       ry="0.73499131" />
    <rect
       style="opacity:1;fill:#00000b;fill-opacity:1;stroke-width:0.0979006"
       id="rect1237-4"
       width="4.9766316"
       height="83.388092"
       x="132.82716"
       y="166.94881"
       ry="0.73499131" />
    <rect
       style="opacity:1;fill:#07ff00;fill-opacity:1;stroke-width:0.144703"
       id="rect1277"
       width="3.9833131"
       height="26.792868"
       x="140.62881"
       y="34.742996"
       ry="0.3608799"
       transform="matrix(0.84589201,0.5333542,-0.56959109,0.82192821,0,0)" />
    <path
       id="rect1279"
       style="opacity:1;fill:#00000b;fill-opacity:1;stroke-width:0.999999"
       d="M 278.0625 630.98828 C 276.66802 630.98828 275.54688 632.10945 275.54688 633.50391 C 275.54688 634.8984 276.66802 636.02148 278.0625 636.02148 L 352.5 636.02148 L 352.5 630.98828 L 278.0625 630.98828 z M 366.07227 630.98828 L 366.07227 636.02148 L 435.71484 636.02148 L 435.71484 630.98828 L 366.07227 630.98828 z M 450 630.98828 L 450 636.02148 L 518.31641 636.02148 C 519.71086 636.02148 520.83398 634.8984 520.83398 633.50391 C 520.83398 632.10945 519.71086 630.98828 518.31641 630.98828 L 450 630.98828 z "
       transform="scale(0.26458333)" />
    <path
       id="rect1279-8"
       style="opacity:1;fill:#00000b;fill-opacity:1;stroke-width:0.264583"
       d="m 73.520345,181.07743 c -0.368956,0 -0.665591,0.29664 -0.665591,0.66559 0,0.36896 0.296635,0.66611 0.665591,0.66611 h 19.694922 v -1.3317 z m 23.285923,0 v 1.3317 h 18.426262 v -1.3317 z m 22.205872,0 v 1.3317 h 18.07539 c 0.36895,0 0.66611,-0.29715 0.66611,-0.66611 0,-0.36895 -0.29716,-0.66559 -0.66611,-0.66559 z" />
    <path
       style="fill-rule:nonzero;stroke:#000000;stroke-width:0.265;stroke-linecap:butt;stroke-linejoin:miter;stroke-miterlimit:4;stroke-dasharray:none;stroke-opacity:1;marker-end:url(#Arrow1Lend)"
       d="m 95.14795,188.29139 c 0,-65.21377 0,-65.21377 0,-65.21377"
       id="path1305" />
    <rect
       style="opacity:1;fill:#ff0000;fill-opacity:1;stroke-width:0.144703"
       id="rect1277-9"
       width="3.9833131"
       height="26.792868"
       x="172.51414"
       y="43.052193"
       ry="0.3608799"
       transform="matrix(0.84589201,0.5333542,-0.56959109,0.82192821,0,0)" />
    <path
       style="fill-rule:nonzero;stroke:#000000;stroke-width:0.264999;stroke-linecap:butt;stroke-linejoin:miter;stroke-miterlimit:4;stroke-dasharray:none;stroke-opacity:1;marker-end:url(#Arrow1Lend-4)"
       d="m 117.19767,208.15839 c 0,-65.21378 0,-65.21378 0,-65.21378"
       id="path1305-9" />
    <rect
       style="opacity:1;fill:#ff0000;fill-opacity:1;stroke-width:0.144703"
       id="rect1277-9-0"
       width="3.9833131"
       height="26.792868"
       x="203.56146"
       y="22.449297"
       ry="0.3608799"
       transform="matrix(0.84589201,0.5333542,-0.56959109,0.82192821,0,0)" />
    <rect
       style="opacity:1;fill:#ff0000;fill-opacity:1;stroke-width:0.144703"
       id="rect1277-9-7"
       width="3.9833131"
       height="26.792868"
       x="199.57816"
       y="-4.3435707"
       ry="0.3608799"
       transform="matrix(0.84589201,0.5333542,-0.56959109,0.82192821,0,0)" />
    <path
       style="fill-rule:nonzero;stroke:#000000;stroke-width:0.264999;stroke-linecap:butt;stroke-linejoin:miter;stroke-miterlimit:4;stroke-dasharray:none;stroke-opacity:1;marker-end:url(#Arrow1Lend-4-6)"
       d="m 95.648778,115.5935 65.211802,0.5084"
       id="path1305-9-2"
       sodipodi:nodetypes="cc" />
    <path
       style="fill-rule:nonzero;stroke:#000000;stroke-width:0.202152;stroke-linecap:butt;stroke-linejoin:miter;stroke-miterlimit:4;stroke-dasharray:none;stroke-opacity:1;marker-end:url(#Arrow1Lend-4-6-7)"
       d="m 118.65356,138.16818 32.87601,0.58684"
       id="path1305-9-2-6"
       sodipodi:nodetypes="cc" />
    <path
       style="fill-rule:nonzero;stroke:#000000;stroke-width:0.238335;stroke-linecap:butt;stroke-linejoin:miter;stroke-miterlimit:4;stroke-dasharray:none;stroke-opacity:1;marker-end:url(#Arrow1Lend-9)"
       d="m 160.86058,116.1019 c 0,-52.750423 0,-52.750423 0,-52.750423"
       id="path1305-6" />
    <path
       id="rect7939-9"
       style="opacity:1;fill:#ff0000;fill-opacity:1;fill-rule:nonzero;stroke-width:0.264999;stroke-miterlimit:4;stroke-dasharray:none"
       d="m 164.45724,87.662338 -0.27548,-0.29142 c -0.12715,-0.134496 -0.33779,-0.140312 -0.47229,-0.01316 l -3.05729,2.890007 -2.8738,-3.071735 c -0.12645,-0.135156 -0.33705,-0.142532 -0.4722,-0.01608 l -0.29283,0.273963 c -0.13516,0.126448 -0.14181,0.337067 -0.0154,0.472223 l 2.87769,3.075888 -3.06144,2.893892 c -0.1345,0.127149 -0.14031,0.337799 -0.0132,0.472295 l 0.27547,0.29142 c 0.12715,0.134496 0.33781,0.140314 0.4723,0.01316 l 3.05693,-2.890385 2.87416,3.072113 c 0.12645,0.135156 0.33704,0.142532 0.4722,0.01608 l 0.29283,-0.273964 c 0.13516,-0.126448 0.1418,-0.337067 0.0154,-0.472223 l -2.87769,-3.075884 3.06071,-2.893917 c 0.13449,-0.127148 0.14104,-0.337774 0.0139,-0.472272 z"
       inkscape:transform-center-x="90.470735"
       inkscape:transform-center-y="-27.127857" />
    <path
       style="fill-rule:nonzero;stroke:#000000;stroke-width:0.238335;stroke-linecap:butt;stroke-linejoin:miter;stroke-miterlimit:4;stroke-dasharray:none;stroke-opacity:1;marker-end:url(#Arrow1Lend-9-3)"
       d="m 151.52957,138.75502 c 0,-52.750421 0,-52.750421 0,-52.750421"
       id="path1305-6-1" />
  </g>
</svg>
